<?xml version="1.0" ?><svg enable-background="new 0 0 512 512" id="Layer_1" version="1.1" viewBox="0 0 512 512" xml:space="preserve" xmlns="http://www.w3.org/2000/svg" xmlns:xlink="http://www.w3.org/1999/xlink"><g><g><linearGradient gradientUnits="userSpaceOnUse" id="SVGID_1_" x1="-0.0000027" x2="512" y1="256" y2="256"><stop offset="0" style="stop-color:#95A5A6"/><stop offset="1" style="stop-color:#7F8C8D"/></linearGradient><circle cx="256" cy="256" fill="url(#SVGID_1_)" r="256"/><linearGradient gradientUnits="userSpaceOnUse" id="SVGID_2_" x1="42.6666641" x2="469.3333435" y1="256.0005188" y2="256.0005188"><stop offset="0" style="stop-color:#7F8C8D"/><stop offset="1" style="stop-color:#95A5A6"/></linearGradient><path d="M256,469.3338623c-117.6315155,0-213.3333435-95.7023926-213.3333435-213.3333435    c0-117.6314545,95.7018204-213.333313,213.3333435-213.333313c117.6356812,0,213.3333435,95.7018661,213.3333435,213.333313    C469.3333435,373.6314697,373.6356812,469.3338623,256,469.3338623z" fill="url(#SVGID_2_)"/></g><path d="M164.9786224,144v240H363.020752V144H164.9786224z M223.5946655,354.165863h-35.6373291v-33.8746643   h35.6373291V354.165863z M223.5946655,300.2911987h-35.6373291v-33.8752136h35.6373291V300.2911987z M281.8186646,354.165863   h-35.6373291v-33.8746643h35.6373291V354.165863z M281.8186646,300.2911987h-35.6373291v-33.8752136h35.6373291V300.2911987z    M340.0426636,354.165863h-35.6373291v-33.8746643h35.6373291V354.165863z M340.0426636,300.2911987h-35.6373291v-33.8752136   h35.6373291V300.2911987z M340.0426636,237.2490692H187.9573364v-63.174942h152.0853271V237.2490692z" opacity="0.3"/><path d="M156.9786224,136v240H355.020752V136H156.9786224z M215.5946655,346.165863h-35.6373291v-33.8746643   h35.6373291V346.165863z M215.5946655,292.2911987h-35.6373291v-33.8752136h35.6373291V292.2911987z M273.8186646,346.165863   h-35.6373291v-33.8746643h35.6373291V346.165863z M273.8186646,292.2911987h-35.6373291v-33.8752136h35.6373291V292.2911987z    M332.0426636,346.165863h-35.6373291v-33.8746643h35.6373291V346.165863z M332.0426636,292.2911987h-35.6373291v-33.8752136   h35.6373291V292.2911987z M332.0426636,229.2490692H179.9573364v-63.174942h152.0853271V229.2490692z" fill="#FFFFFF"/></g></svg>